<?xml version="1.0" encoding="UTF-8"?>
<svg width="752pt" height="752pt" version="1.1" viewBox="0 0 752 752" xmlns="http://www.w3.org/2000/svg">
 <path d="m531.89 161.54c-1.5938 0-3.1758 0.023438-4.7617 0v-0.003906c-38.043 1.2031-74.703 17.332-101.44 45.832h-0.003906c-34.969 37.297-47.746 90.199-33.809 139.25-18.117 30.383-31.371 63.805-36.785 101.86-5.1445-13.328-11.422-25.965-18.594-38.039 11.875-42.441 0.75391-88.137-29.48-120.39v0.003906-0.003906c-23.207-24.734-55.031-38.734-88.051-39.777l0.003906 0.003907c-11.008-0.33594-22.145 0.75391-33.145 3.3633l1.9297-0.28125c-3.6445 0-6.8633 2.3789-7.9258 5.8633-13.211 43.25-2.2656 90.305 28.656 123.28 29.426 31.355 72.691 45.457 114.69 37.777 16.27 27.809 27.285 58.465 29.984 93.996v68.035c0 2.1953 0.87109 4.3047 2.4258 5.8594 1.5547 1.5547 3.6602 2.4258 5.8594 2.4258 4.5742 0 8.2852-3.7109 8.2852-8.2852v-115.19c3.1758-41.91 16.262-78.02 35.535-110.73 48.676 9.2305 98.941-6.9961 133.05-43.352 35.645-37.996 48.242-92.207 33.02-142.04h-0.003907c-0.85938-2.8125-3.1445-4.9609-6.0039-5.6406-11.086-2.6289-22.297-3.9336-33.422-3.9453zm-0.61719 16.566c8.4648-0.011718 16.992 0.86719 25.469 2.5469 11.359 42.867-0.027344 88.68-30.52 121.18-28.727 30.609-70.297 45.031-111.36 39.395 22.727-34.074 51.93-64.676 83.012-94.785v0.003906c1.5898-1.5195 2.5117-3.6055 2.5664-5.8008 0.050782-2.1992-0.76953-4.3242-2.2852-5.918-2.0625-2.1211-5.1016-2.9844-7.9688-2.2617-1.4141 0.35547-2.707 1.0781-3.75 2.0977-29.793 28.863-58.582 58.875-81.781 92.465-6.1562-38.949 5.793-78.969 33.219-108.22l0.003906-0.003906c23.707-25.262 56.164-39.551 89.867-40.609l-0.003906 0.003907h3.6289zm-315.81 88.75c1.0078 0.003907 2.0117 0.019532 3 0 28.68 0.89453 56.301 13.059 76.477 34.559 22.66 24.172 32.91 56.988 28.688 89.215-19.723-28.016-43.871-53.145-68.801-77.293-1.043-1.0156-2.3359-1.7383-3.75-2.0977-2.8672-0.71875-5.9062 0.14453-7.9648 2.2656-1.5195 1.5938-2.3398 3.7188-2.2891 5.918 0.054687 2.1953 0.97656 4.2812 2.5664 5.8008 26.238 25.422 50.871 51.195 70.191 79.77-34.34 4.1211-68.906-8.1758-92.918-33.77-25.781-27.484-35.516-66.148-26.156-102.43 7.0039-1.3438 14.055-2.043 21.051-2.0117z" fill="#4a8e31"/>
</svg>
