<?xml version="1.0" encoding="UTF-8"?>
<svg width="752pt" height="752pt" version="1.1" viewBox="0 0 752 752" xmlns="http://www.w3.org/2000/svg">
 <g>
  <rect width="752" height="752" fill="#fff"/>
  <path d="m455.91 309.17c1.8516-6.1602 4.6172-12.004 8.207-17.34 1.3672-1.7461 2.6055-3.5898 3.707-5.5117 2.0352-5.125 6.9609-8.5156 12.477-8.5938 3.5391-0.32031 6.9219-1.6172 9.7695-3.7383 2.8516-2.125 5.0586-4.9922 6.3828-8.293 3.8867-8.293 7.5195-16.707 11.445-25.488-0.68359-0.22266-1.9141-1.1016-2.6406-0.79297-7.2031 3.0742-14.395 6.1953-21.449 9.5938v-0.003906c-3.8047 1.4414-7.0547 4.0547-9.2773 7.4609-2.2188 3.4102-3.2969 7.4375-3.0703 11.504 0.35937 2.7969 0.011718 5.6367-1.0039 8.2695-3.0234 5.5586-6.8438 10.684-11.035 17.023 1.3828-10.766 2.918-20.098 3.668-29.492 0.28125-5.25 2.0742-10.309 5.1641-14.559 2.0664-2.7734 3.2969-6.0742 3.5547-9.5195 0.25391-3.4453-0.47656-6.8906-2.1094-9.9375-3.1992-6.5156-5.418-13.469-6.5898-20.633-0.10938-0.85547-0.87891-1.625-1.7891-3.2031h0.003907c-0.89453 1.1953-1.6992 2.4609-2.3984 3.7773-2 4.8242-4.043 9.6445-5.7812 14.566-3.3125 9.3711-4.043 18.719 3.2461 26.621 3.6797 4.0625 5.1094 9.6836 3.8203 15.008-1.2461 8.1523-2.1953 16.363-3.8359 24.434-1.957 9.6484-4.4023 19.203-6.8711 28.738l0.003906 0.003906c-0.98047 2.9102-2.1758 5.7422-3.5664 8.4766-4.6016-7.2539-4.8828-9.5703-2.0859-17.406v0.003906c1.9961-4.0742 1.918-8.8516-0.20312-12.859-2.125-4.0039-6.0391-6.75-10.531-7.3828-4.7852-1.4922-9.4805-3.2695-14.059-5.3203-1.0625-0.40625-2.1641-0.70312-3.1641-1.0234-0.41016 0.63672-0.875 1.0547-0.79688 1.2852 2.2266 6.6172 0.94922 13.555 1.9062 20.25l0.003907 0.003906c1.0234 5.6016 4.2852 10.547 9.0352 13.688 3.9805 3.0078 8.5039 1.7578 12.914 2.457 2.8008 4.5352 3.6367 10.012 2.3164 15.172-2.332 6.9961-5.668 13.617-9.9023 19.656-1.0664-1.7695-1.7656-2.9297-2.4688-4.0938-4.4688-7.3945-8.4766-15.121-13.516-22.102-7.8711-10.898-16.613-21.09-22-33.703h-0.003906c-2.457-5.5-3.3477-11.57-2.5742-17.539 0.17188-2.9648 1.6094-5.7109 3.9492-7.5391 3.5859-2.9961 8.3164-5.7383 8.4609-11.215 0.17969-6.7539-0.24219-13.523-0.41797-21.008h-0.003907c-1.3789 0.43359-2.7148 0.98828-3.9961 1.6641-1.332 0.84766-2.3945 2.1094-3.6484 3.0977v-0.003906c-3.7891 2.875-6.7109 6.7383-8.4414 11.172-1.7305 4.4297-2.2031 9.25-1.3672 13.934 0.058594 1.1992 0.48047 2.3516 1.2031 3.3086 2.832 2.875 1.7109 5.6484 0.10547 9.8125h0.003906c-0.87109-2.2148-1.5977-4.4805-2.168-6.7891-1.4531-7.3125-2.4922-14.699-3.1172-22.125-0.33594-7.082-0.19141-14.039 5.7305-20.051h-0.003907c2.6094-2.5703 4.4766-5.793 5.4023-9.332 0.92969-3.5391 0.88672-7.2656-0.125-10.781-2.3047-5.8438-3.1836-12.152-2.5547-18.398 0.13281-0.61328-1.3125-1.5742-2.6523-3.0703h0.003906c-4.5078 5.6094-8.6367 11.512-12.367 17.668-4.3203 8.2383-6.6484 17.172 0.23828 25.477h0.003906c2.2695 3.0547 3.3945 6.8086 3.1797 10.605 0.17188 4.6133 0.48828 9.2227 0.8125 13.828 0.21484 3.0898 0.55078 6.1758 0.90234 10.023l-0.003906 0.003906c-4.1211-1.9961-7.5625-5.1562-9.9023-9.0938-2.3633-4.2852-6.418-7.3789-11.176-8.5273-2.8633-0.83594-5.6875-1.8164-8.4961-2.8242-1.9062-0.68359-3.0664-0.18359-3.4805 1.3555 1.5898 3.207 2.9336 6.0742 4.4141 8.8711v0.003906c1.5586 3.2617 3.3359 6.4102 5.3242 9.4258 2.0156 3.1758 5.8398 4.6953 9.4844 3.7695 2.9141-0.67188 5.8516-1.2383 9.043-1.9062 1.6797 3.6289 6.0391 4.5547 7.1211 8.8047 2.7383 9.7109 6.9727 18.934 12.559 27.336 1.4883 2.3789 2.5664 5.0156 3.8281 7.5312h0.003906c-3.9062-0.82812-7.4062-2.9844-9.8984-6.1016-2.3438-2.9688-5.8672-4.7617-9.6445-4.9141-3.7773-0.14844-7.4336 1.3633-10.004 4.1328-1.9727 2.0117-4.1172 3.8594-6.0352 5.918v0.003906c-0.54688 0.75391-0.96875 1.5977-1.2461 2.4883 4.9062 2.3438 9.4883 4.2852 13.828 6.6719 3.6562 2.4531 8.5938 1.5781 11.184-1.9805 1.207-1.5586 2.2461-3.2461 3.2812-4.7578v0.003906c8.2695 1.8906 15.555 6.7578 20.469 13.676 1.1055 1.4375 2.3477 2.7695 3.4141 4.2344 5.6914 7.2969 10.309 15.367 13.715 23.969 1.1055 2.4141 0.82422 5.2344-0.73047 7.3828-2.8438 3.8945-5.5703 7.8711-8.4141 11.766-3.2695 4.4766-6.6133 8.9023-9.9219 13.352h-0.003906c-0.86328-1-1.1719-2.3594-0.82812-3.6367 1.0508-2.6172 2.3672-5.1172 3.9375-7.457 2.8594-3.7852 3.3555-8.8477 1.2852-13.113-1.7812-4.4688-3.2734-9.0547-5.0234-13.539-0.29688-0.75781-1.2461-1.2617-2.25-2.2227-2.4688 5.9062-4.7305 11.227-6.9141 16.574-2.1328 4.9453-1.2188 10.68 2.3516 14.715 2.1328 2.6328 3.2969 5.9141 3.3047 9.3008 0.007813 3.3867-1.1406 6.6758-3.2617 9.3164-5.6055 7.6133-11.133 15.285-16.582 23.012-3.7773 5.6914-8.0391 11.047-12.73 16.012-6.6055 6.6602-13.168 13.699-14.82 23.68-0.29297 2.0977-1.4453 3.9844-3.1797 5.1992 0.66797-7.9414 0.88672-15.91 0.65625-23.875-1.1094-9.6094-0.27734-19.344 2.4531-28.625 0.77734-4.1953 3.3789-7.8242 7.1016-9.9102 3.6367-1.7148 5.418-5.8789 4.1484-9.6953-0.44141-3.1602-0.67578-6.3438-0.70703-9.5312-0.0625-0.875-0.24609-1.7422-0.34375-2.3945-0.65625-0.21875-0.92578-0.39453-1.0234-0.32812-1.957 1.3633-3.9102 2.7266-5.8281 4.1406-8.1484 6-9.5078 10.465-5.7578 19.656 1.3164 2.4102 0.86719 5.4023-1.1016 7.3203-0.40234-4.9922-1.1836-9.9453-2.3359-14.816-3.2188-10.137-5.9023-20.434-8.0391-30.852-1.2109-3.4922-0.41016-7.3711 2.0938-10.094 0.98047-0.98828 1.5508-2.3711 2.4961-3.4062 4.3125-4.3047 5.1602-10.984 2.0664-16.234-3.1484-4.5742-4.1953-10.273-2.875-15.664-2.6523-1.2227-3.9414-0.72266-4.75 1.5039v-0.003906c-0.70312 2.0898-1.6328 4.0977-2.7695 5.9844-2.9062 4.8594-4.6523 10.324-5.0977 15.969-0.875 4.2305 0.44531 8.6172 3.5117 11.664 2.4766 2.3242 2.5273 5.0352 1.043 9.2227-6.0977-11.461-11.652-21.879-17.168-32.316-0.375-0.70703-0.57812-1.4922-0.60156-2.293-0.61719-8.707 0.19141-17.457 2.4023-25.902 3.3711-0.70703 6.4023-2.543 8.5859-5.207 2.1836-2.6641 3.3906-5.9961 3.4219-9.4414 0.375-4.6289 0.19922-9.2852-0.52344-13.871-1.0703-4.5352-0.65234-9.2891 1.1875-13.57 0.26562-0.52344-0.19531-1.4102-0.38672-2.5469-1.0547 0.51953-1.9766 0.66797-2.3438 1.2031-5.3633 7.7852-11.016 15.41-15.844 23.52-3.5586 5.9805-5.582 12.73-0.97266 19.285 2.0117 2.5039 2.8164 5.7695 2.2031 8.9219-0.62109 3.1797-0.87109 6.4336-1.2852 9.6562l-1.2891 0.12109v-0.003907c-1.2227-1.9922-2.2734-4.0859-3.1406-6.2578-2.1719-7.0156-4.1016-14.105-6.0859-21.176-1.3555-4.8398-2.2617-9.8438-4.0742-14.5-1.9531-4.0586-1.6016-8.8438 0.91797-12.57 2.1289-3.3359 3.3281-7.1836 3.4688-11.141 0.14453-3.9531-0.77344-7.875-2.6562-11.355-2.9609-6.7344-6.3164-13.297-9.5664-20.074-1.9492-0.26953-2.4297 0.96484-2.707 2.8359-0.5 3.3477-1.1641 6.6641-1.9961 9.9453-0.79297 3.1172-2.2305 6.0938-2.793 9.2383-1.2578 7.0391-2.2266 14.309 3.9609 19.738 10.281 9.0234 10.473 21.785 14.051 34.73-1.8125-1.2461-2.4531-1.6758-3.082-2.1211-4.3516-3.0977-5.3398-8.4375-8.3359-12.414v-0.003907c-1.5039-2.3125-3.5273-4.2383-5.9102-5.6289-4.8398-2.2422-10.051-3.6836-15.566-5.6172-0.035156 1.418-0.49609 2.7695-0.023437 3.5859 3.1055 5.3984 6.3477 10.719 9.668 15.988h-0.003906c2.582 4.2773 7.6562 6.3633 12.5 5.1406 1.6914-0.37109 3.4609-0.10938 4.9727 0.73828 3.7031 2.7891 6.6367 6.4727 8.5352 10.707 3.3477 7.9609 7.4023 15.629 11.25 23.379 2.1758 4.3867 4.5234 8.6836 6.793 13.023-6.5195-1.8555-12.566-3.6719-15.062-10.324-0.5-0.87109-1.1367-1.6602-1.8828-2.332-6.8359-8.2266-16.602-9.9844-26.301-11.859-0.30078-0.058593-0.69141 0.34375-2.2422 1.1836l-0.003907-0.003906c3.5703 5.8594 7.4961 11.496 11.75 16.875 2.9102 3.3359 6.7109 5.7656 10.957 7.0117 4.3594 1.6758 9.1523 1.8516 13.625 0.50391 0.76953-0.1875 1.5859-0.046875 2.25 0.38281 6.6133 4.1641 13.594 7.918 16.516 15.973 1.0938 3.0156 2.6836 5.8516 4.0195 8.7852 4.8867 9.4961 8.168 19.738 9.6992 30.312 1.043 10.617 1.4844 21.293 2.1445 31.945-0.011719 1.0625-0.10938 2.125-0.28906 3.1719l-1.2969 0.32422c-1.3008-2.7891-2.7734-5.5117-3.8594-8.3789-2.1133-5.5664-4.6641-7.5117-10.5-6.5273v-0.003906c-4.5156 0.91406-8.9688 2.1055-13.336 3.5664-0.51953 0.15625-0.76172 1.2422-0.91406 1.5117 2.4141 2.9336 4.5078 5.5586 6.6914 8.1055v-0.003906c2.3438 3.4531 6.7148 4.9023 10.656 3.5273 7.5352-2.4141 10.055-1.2773 12.676 5.8984 0.72656 2.5 0.85547 5.1367 0.37891 7.6992-1.2305 10-1.625 20.086-1.1836 30.152 0.22656 8.4648 0.050782 16.938 0.19141 25.402 0.16406 10.039 0.47656 20.074 0.72266 30.113 0.058593 2.3516 0.11328 4.7109 0.16797 7.0977 0.47266-0.0625 0.94141-0.0625 1.4141-0.15625 1.0273-0.21484 2.0312-0.54687 2.9844-0.98828-0.40234-0.91016-0.69922-1.8672-0.88281-2.8477-0.41406-2.1797-0.62109-4.3945-0.62109-6.6172-0.10938-19.137-0.11719-38.277-0.23438-57.414-0.066406-11.105 5.7148-20.398 9.2539-30.387 0.375-1.0586 1.543-1.8203 2.2734-2.7734 5.7383-7.4883 13.109-13.523 18.5-21.398 2.3711-2.9258 5.6172-5.0156 9.2656-5.957 3.9492-0.79688 8.0039-0.96094 12.004-0.48438 2.6328 0.32422 5.2695-0.55859 7.1758-2.3984 5.4883-5.5977 10.906-11.258 17.012-17.574-5.457 0.12891-10 0.027343-14.5 0.40234-4.5898 0.38281-9.1367 1.2305-14.617 2.0039 14.289-17.105 24.281-36.824 44.324-47.613 7.6523 2.3477 15.953 1.2109 22.695-3.1094 4.4727-2.7734 8.168-6.6328 10.746-11.223 2.8828-6.2383 7.1875-11.715 12.57-15.988 0.72656-0.48828 0.67969-2.1367 0.95312-3.1289-8.7617 1.3906-16.852 2.668-24.941 3.9531h0.003906c-8.3398 1.3906-15.316 7.1055-18.32 15.008-0.78906 2.0625-1.457 4.1719-2 6.3125-0.35938 1.1016-0.51172 2.5664-1.293 3.1914-3.832 3.0703-7.8477 5.9141-11.801 8.8398 0.90234-3.7656 2.3711-7.375 4.3594-10.703 7.5078-12.898 13.406-26.672 17.562-41.004zm26.879-55.598c5.6172-2.8359 11.383-5.3711 17.273-7.5859-0.011719 1.6445-0.22266 3.2812-0.62891 4.875-2.3438 5.7344-5.0547 11.312-8.1172 16.703-3.0078 5.3047-9.1094 8.0508-15.074 6.7852 5.3672-5.9102 10.113-11.137 14.859-16.363l-1.3867-1.4492c-4.5977 4.5078-9.1953 9.0117-13.961 13.684-1.7109-8.2422-0.20312-12.504 7.0352-16.648zm-22.566-4.3633c-3.2812-1.5391-5.4453-4.7617-5.6289-8.3789-0.80078-5.3984-0.15234-10.914 1.8711-15.98 1.3594-2.875 2.4023-5.9023 3.9531-9.7617 2.7188 7.3008 5.5117 13.66 7.4062 20.281 1.5391 4.7148 0.089843 9.8945-3.668 13.129-0.61328-6.5195-1.1719-12.414-1.8125-19.223-3.7969 3.5-1.793 6.8047-1.707 9.8164v0.003906c0.67969 3.3516 0.53906 6.8242-0.41406 10.113zm-20.82 62.27c-2.9297-3.3555-3.3789-8.4844-8.4844-10.363 2.1758 4.9531 4.3555 9.9062 6.5703 14.945-8.0234 2.0078-14.773-1.2188-16.336-8.4531v-0.003906c-0.95703-6.2227-1.5078-12.5-1.6445-18.793 4.9805 1.5586 8.75 2.9023 12.609 3.9141 9.8438 2.582 12.723 9.6836 7.2852 18.75zm-78.723-44.316c-3.8516-3.3789-6.4141-7.9844-7.2539-13.039 4.7344-0.29297 9.293 1.8281 12.121 5.6328l-5.3203 0.83594-0.10937 1.1641c3.2383 1.3594 6.4805 2.7227 10.211 4.2891-4.957 3.4297-6.8047 3.707-9.6484 1.1172zm19.957-44.961c-0.63672 3.0898-1.1055 6.2109-1.7539 9.9336l-0.003906-0.003907c-3.0156-1.5312-4.875-4.668-4.7656-8.0508 0.19531-8.9336 4.1367-17.375 10.859-23.258 6.5469 15.883 7.0859 21.531-2.582 32.094 0.91406-7.0391 1.6484-12.727 2.5117-19.371-2.7109 2.0469-4.293 5.2578-4.2695 8.6523zm18.68 23.594v-0.003906c1.7305 3.6836 2.1211 7.8555 1.1016 11.797s-3.3828 7.4023-6.6836 9.7852c-0.11328-3.6172 2.957-6.1797 0.87891-10.707-2 4.1914-3.5391 7.418-5.3164 11.145-1.8398-10.582 2.0156-18.699 10.02-22.02zm-13.723 68.367c-2.2344 5.582-3.9453 6.4414-8.4453 4.2617-3.0352-1.4688-5.9727-3.1328-8.9531-4.7109 4.8867-7.75 11.191-10.824 17.711-4.0039-2.7188 1.418-6.3906-1.4297-8.9766 2.293 3.1641 0.78906 5.8906 1.4688 8.6641 2.1602zm-21.539 75.426c-0.5 4.5586 3.9648 9.6055-2.6797 13.559-0.15625-2.0742-0.27344-3.6602-0.50391-6.707-1.6406 2.8438-2.5391 4.4023-3.5547 6.168-1.9258-7.2188-0.52734-9.9609 6.7383-13.02zm-65.367-129.07c-0.66016-2.6719 1.0234-6.0156-3.082-9.0039 0.45703 6.2617 0.83203 11.449 1.2383 17.012v-0.003906c-5.9102-2.7383-8.6992-9.5742-6.4023-15.668 1.1406-4.9961 2.9336-9.8438 4.5469-15.129 8.3594 11.621 12.41 23.527 5.2461 31.684-0.55859-3.3086-0.87109-6.1445-1.5469-8.8945zm-19.941 23.762c6.1055 1.7969 11.305 3.0273 13.809 9.1641l-4.5078-1.0547c-0.40625 4.1953 4.332 4.0938 4.9727 6.9844-5.9297 0.86328-9.6133-2.875-14.273-15.094zm39.047 10.441c2.9062-7.7617 7.2539-14.902 12.809-21.051 0.625 0.92969 1.1133 1.9453 1.4414 3.0156 0.34375 4.6094 0.58203 9.2305 0.78516 13.852-0.066406 4.2891-1.9609 8.3438-5.207 11.148-0.67969 0.71094-2.0039 0.80859-3.8008 1.4688 1.0391-4.3398 1.8906-7.9102 2.7461-11.477l-1.3477-0.55469c-3.8281 3.3203-2.4414 8.9219-5.0391 12.797-3.5938-4.0977-3.6914-4.8945-2.3867-9.1992zm-29.289 37.012c8.1758 0.59375 15.68 4.7461 20.523 11.359-4.6562-1.3789-8.0352-2.3828-12.066-3.5742 1.0664 4.0938 4.1914 3.8242 6.2422 4.957 2.2344 1.2344 4.6289 2.1875 7.1602 3.3555-7.5039 2.5742-17.793-4.9844-21.859-16.098zm48.625 18.223v0.003907c-0.09375-6.6406 1.9805-13.133 5.9062-18.484 3.0625 7.8359 8.9648 14.785 1.1016 23.152-0.074219-3.0547-0.13281-5.5352-0.19141-8.0117l-1.0586-0.31641c-0.91797 2.5547-1.8359 5.1133-2.7539 7.6719v0.003906c-0.95703-0.074218-1.8398-0.55859-2.4141-1.3281-0.57422-0.76953-0.78906-1.75-0.58984-2.6875zm3.6875 89.797c-5.8242 2.6367-6.9414 2.1992-12.152-4.6719 5.7383-5.6602 11.691-5.418 14.496 0.87891-1.5469-0.089844-2.9609-0.16797-5.4219-0.30859zm48.953-20.023c2.9336-3.543 5.3867-6.5039 8.3828-10.121 0.34766 5.0664-3.3398 9.5156-8.3828 10.121zm30.391-13.055c-4.3047 8.8672-11.012 13.258-18.105 11.25 2.2305-1.3867 4.1055-2.5469 5.9805-3.7109l-0.19922-1.0391-5.8555 0.625c0.40234-6.7734 5.7305-8.9219 18.184-7.1289zm-14.949-28.398c-3.0273-0.85156-4.8633-3.918-4.1914-6.9922 0.78906-4.9766 2.6953-9.707 5.5742-13.84 1.8516 6.625 6.6719 11.441 2.1523 18.043-0.125-1.0781-0.34375-2.1445-0.65234-3.1836-0.44531-0.91016-0.98047-1.7734-1.5977-2.5781l-1.4727 0.52344c0.058593 2.4453 0.11328 4.8906 0.1875 8.0273zm65.969-39.621c-5.2344-1.1602-7.5977 1.9844-10.426 3.6641-3.0117 1.7891-5.7969 3.957-9.0781 6.2344h0.003907c0.17578-4.1602 1.7617-8.1406 4.4883-11.285 2.7305-3.1484 6.4453-5.2773 10.539-6.043 4.9375-0.79297 9.9492-1.1289 15.074-1.6836-6.4141 16.969-17.5 27.664-33.258 25.074 7.9102-5.5703 14.848-10.457 22.656-15.961z" fill="#4a8e31"/>
 </g>
</svg>
