<?xml version="1.0" encoding="UTF-8"?>
<svg width="752pt" height="752pt" version="1.1" viewBox="0 0 752 752" xmlns="http://www.w3.org/2000/svg">
 <path d="m563.96 281.29c-26.711-6.3477-76.719-12.977-111.39 13.641-21.406 16.434-32.723 42.195-33.719 76.531v-0.003906c-0.089844 2.9453 0.27734 5.8867 1.0898 8.7148-17.098 23.68-29.125 53.703-37.555 83.207v0.003906c-4.5859-21.766-11.082-43.078-19.418-63.699 1.8711-2.9297 3.2891-6.1211 4.2148-9.4727 8.8086-34.051 24.344-118.68-21.359-169.12-30.215-33.152-80.035-44.707-148.23-33.957v0.003907c-6.9961 1.1445-13.477 4.4102-18.559 9.3594-5.082 4.9453-8.5195 11.332-9.8555 18.297-5.4453 28.887-13.641 101.44 28.414 151.55 27.941 33.152 72.031 49.961 131.04 49.961h6.582c13.402 34.336 24.105 80.793 27.043 143.54 0.17188 4.3633 2 8.4961 5.1172 11.551 3.1172 3.0547 7.2852 4.8047 11.648 4.8828h0.47656c4.2734 0.03125 8.4062-1.5391 11.582-4.4062 3.1719-2.8672 5.1562-6.8203 5.5586-11.078 3.1719-31.113 14.207-109.96 46.883-158.22h0.003906c18.164 6.9375 37.387 10.703 56.828 11.129 17.102 0.45703 33.953-4.1953 48.402-13.355 24.625-16.387 37.508-46.41 38.312-89.316 0.14453-6.8594-2.0742-13.555-6.2812-18.973-4.207-5.4141-10.152-9.2148-16.832-10.77zm-342.02 64.266c-33.434-39.59-26.285-100.64-21.645-125.07h0.003907c0.1875-1.1406 1.082-2.0391 2.2227-2.2266 13.734-2.2578 27.617-3.4453 41.535-3.5508 35.426 0 61.566 9.4727 78.234 27.516 10.609 11.699 31.965 45.133 19.418 115.7-32.723-52.094-68.953-64.832-71.559-65.688v0.003906c-4.0781-1.5469-8.6133-1.3594-12.547 0.52344-3.9375 1.8828-6.9297 5.2969-8.2852 9.4414-1.3516 4.1484-0.94922 8.668 1.1133 12.512 2.0664 3.8438 5.6133 6.6719 9.8203 7.832 0.56641 0 32.156 11.32 60.191 61.566-44.941-1.4219-78.094-14.352-98.504-38.551zm309.3 28.414c-18.422 12.219-45.559 8.1445-64.359 2.8906 11.293-8.8984 25.168-13.887 39.543-14.211 5.7031-0.125 10.902-3.2852 13.645-8.2852 2.7383-5 2.6055-11.086-0.35547-15.961-2.9609-4.875-8.2969-7.7969-14-7.6719-18.363 0.28125-36.27 5.7852-51.621 15.867 2.8828-10.539 9.0352-19.891 17.57-26.711 24.672-18.941 65.969-12.359 83.871-8.2891-0.80469 31.258-9.043 52.047-24.293 62.23z" fill="#4a8e31"/>
</svg>
